<?xml version="1.0" encoding="UTF-8"?>
<svg xmlns="http://www.w3.org/2000/svg" viewBox="0 0 1000 1500" font-family="Helvetica, Arial, sans-serif">
    <!-- Page background -->
    <rect width="1000" height="1500" fill="#f5f5f5"/>

    <!-- Browser frame (Windows 11 style) -->
    <rect x="20" y="20" width="960" height="1460" fill="#ffffff" stroke="#333" stroke-width="2" rx="8"/>
    <rect x="20" y="20" width="960" height="30" fill="#f3f3f3" stroke="#333" stroke-width="2"/>
    <text x="40" y="40" font-size="12" fill="#333">portal/index.html</text>

    <!-- Win11 window controls (right-aligned: minimize, maximize, close) -->
    <line x1="855" y1="36" x2="875" y2="36" stroke="#333" stroke-width="1.2"/>
    <rect x="906" y="29" width="13" height="13" fill="none" stroke="#333" stroke-width="1.2"/>
    <line x1="952" y1="29" x2="965" y2="42" stroke="#c42b1c" stroke-width="1.4"/>
    <line x1="965" y1="29" x2="952" y2="42" stroke="#c42b1c" stroke-width="1.4"/>

    <!-- =================== HEADER =================== -->
    <rect x="40" y="70" width="920" height="110" fill="#e8eef2" stroke="#666" stroke-width="1.5"/>
    <text x="50" y="90" font-size="11" fill="#666" font-weight="bold">HEADER</text>

    <!-- Logo placeholder -->
    <rect x="70" y="100" width="70" height="70" fill="#fff" stroke="#666" stroke-dasharray="4,3"/>
    <line x1="70" y1="100" x2="140" y2="170" stroke="#bbb"/>
    <line x1="140" y1="100" x2="70" y2="170" stroke="#bbb"/>
    <text x="105" y="190" text-anchor="middle" font-size="9" fill="#666">logo.png</text>

    <!-- Site title (h1) and tagline (p) -->
    <text x="170" y="125" font-size="22" font-weight="bold" fill="#222">h1 — Site Title</text>
    <line x1="170" y1="140" x2="500" y2="140" stroke="#aaa" stroke-width="6"/>
    <text x="170" y="165" font-size="12" fill="#555">p — short tagline / subtitle</text>
    <line x1="170" y1="172" x2="420" y2="172" stroke="#ccc" stroke-width="3"/>

    <!-- =================== NAV =================== -->
    <rect x="40" y="190" width="920" height="50" fill="#dde6ea" stroke="#666" stroke-width="1.5"/>
    <text x="50" y="208" font-size="11" fill="#666" font-weight="bold">NAV (ul &gt; li &gt; a)</text>

    <!-- Nav links -->
    <rect x="260" y="200" width="100" height="30" fill="#fff" stroke="#666"/>
    <text x="310" y="220" text-anchor="middle" font-size="12" fill="#222">Home</text>

    <rect x="380" y="200" width="100" height="30" fill="#fff" stroke="#666"/>
    <text x="430" y="220" text-anchor="middle" font-size="12" fill="#222">WWR</text>

    <rect x="500" y="200" width="100" height="30" fill="#fff" stroke="#666"/>
    <text x="550" y="220" text-anchor="middle" font-size="12" fill="#222">ICE</text>

    <rect x="620" y="200" width="100" height="30" fill="#fff" stroke="#666"/>
    <text x="670" y="220" text-anchor="middle" font-size="12" fill="#222">About Me</text>

    <!-- =================== MAIN =================== -->
    <rect x="40" y="250" width="920" height="1100" fill="#fafbfc" stroke="#666" stroke-width="1.5"/>
    <text x="50" y="268" font-size="11" fill="#666" font-weight="bold">MAIN</text>

    <!-- Hero section -->
    <rect x="70" y="290" width="860" height="180" fill="#eef4f7" stroke="#888" stroke-dasharray="5,4"/>
    <text x="80" y="308" font-size="10" fill="#888" font-weight="bold">HERO</text>
    <text x="500" y="360" text-anchor="middle" font-size="20" font-weight="bold" fill="#333">h2 — Welcome Heading</text>
    <line x1="250" y1="380" x2="750" y2="380" stroke="#bbb" stroke-width="4"/>
    <text x="500" y="410" text-anchor="middle" font-size="12" fill="#555">p — intro paragraph</text>
    <line x1="280" y1="420" x2="720" y2="420" stroke="#ccc" stroke-width="2"/>
    <line x1="320" y1="435" x2="680" y2="435" stroke="#ccc" stroke-width="2"/>

    <!-- Projects section (h2 + p + ul of cards w/ images & links) -->
    <rect x="70" y="490" width="860" height="320" fill="#fff" stroke="#888" stroke-dasharray="5,4"/>
    <text x="80" y="508" font-size="10" fill="#888" font-weight="bold">PROJECTS (h2, p, ul, img, a)</text>
    <text x="90" y="540" font-size="18" font-weight="bold" fill="#333">h2 — Featured Projects</text>
    <text x="90" y="565" font-size="11" fill="#555">p — Click any project to view it.</text>

    <!-- Card 1 -->
    <rect x="90" y="590" width="250" height="200" fill="#f7f9fb" stroke="#999"/>
    <rect x="105" y="605" width="220" height="90" fill="#fff" stroke="#bbb" stroke-dasharray="3,3"/>
    <line x1="105" y1="605" x2="325" y2="695" stroke="#ccc"/>
    <line x1="325" y1="605" x2="105" y2="695" stroke="#ccc"/>
    <text x="215" y="715" text-anchor="middle" font-size="11" font-weight="bold" fill="#333">h3 — Project A</text>
    <text x="215" y="735" text-anchor="middle" font-size="10" fill="#555">p — description</text>
    <text x="215" y="765" text-anchor="middle" font-size="11" fill="#18BC9C" text-decoration="underline">a — View →</text>

    <!-- Card 2 -->
    <rect x="375" y="590" width="250" height="200" fill="#f7f9fb" stroke="#999"/>
    <rect x="390" y="605" width="220" height="90" fill="#fff" stroke="#bbb" stroke-dasharray="3,3"/>
    <line x1="390" y1="605" x2="610" y2="695" stroke="#ccc"/>
    <line x1="610" y1="605" x2="390" y2="695" stroke="#ccc"/>
    <text x="500" y="715" text-anchor="middle" font-size="11" font-weight="bold" fill="#333">h3 — Project B</text>
    <text x="500" y="735" text-anchor="middle" font-size="10" fill="#555">p — description</text>
    <text x="500" y="765" text-anchor="middle" font-size="11" fill="#18BC9C" text-decoration="underline">a — View →</text>

    <!-- Card 3 -->
    <rect x="660" y="590" width="250" height="200" fill="#f7f9fb" stroke="#999"/>
    <rect x="675" y="605" width="220" height="90" fill="#fff" stroke="#bbb" stroke-dasharray="3,3"/>
    <line x1="675" y1="605" x2="895" y2="695" stroke="#ccc"/>
    <line x1="895" y1="605" x2="675" y2="695" stroke="#ccc"/>
    <text x="785" y="715" text-anchor="middle" font-size="11" font-weight="bold" fill="#333">h3 — Project C</text>
    <text x="785" y="735" text-anchor="middle" font-size="10" fill="#555">p — description</text>
    <text x="785" y="765" text-anchor="middle" font-size="11" fill="#18BC9C" text-decoration="underline">a — View →</text>

    <!-- Skills table section -->
    <rect x="70" y="830" width="860" height="220" fill="#fff" stroke="#888" stroke-dasharray="5,4"/>
    <text x="80" y="848" font-size="10" fill="#888" font-weight="bold">SKILLS (h2, table w/ caption, thead, tbody)</text>
    <text x="90" y="878" font-size="18" font-weight="bold" fill="#333">h2 — Skills Snapshot</text>

    <!-- Table header -->
    <rect x="90" y="895" width="820" height="32" fill="#2C3E50"/>
    <line x1="365" y1="895" x2="365" y2="1030" stroke="#fff"/>
    <line x1="640" y1="895" x2="640" y2="1030" stroke="#fff"/>
    <text x="105" y="916" font-size="12" fill="#fff" font-weight="bold">th — Topic</text>
    <text x="380" y="916" font-size="12" fill="#fff" font-weight="bold">th — Comfort</text>
    <text x="655" y="916" font-size="12" fill="#fff" font-weight="bold">th — Last Practiced</text>

    <!-- Table rows -->
    <rect x="90" y="927" width="820" height="32" fill="#fff" stroke="#ccc"/>
    <text x="105" y="948" font-size="11" fill="#333">td — HTML structure</text>
    <text x="380" y="948" font-size="11" fill="#333">td — Comfortable</text>
    <text x="655" y="948" font-size="11" fill="#333">td — Week 4</text>

    <rect x="90" y="959" width="820" height="32" fill="#ECF0F1" stroke="#ccc"/>
    <text x="105" y="980" font-size="11" fill="#333">td — CSS layout</text>
    <text x="380" y="980" font-size="11" fill="#333">td — Learning</text>
    <text x="655" y="980" font-size="11" fill="#333">td — Week 5</text>

    <rect x="90" y="991" width="820" height="32" fill="#fff" stroke="#ccc"/>
    <text x="105" y="1012" font-size="11" fill="#333">td — Forms</text>
    <text x="380" y="1012" font-size="11" fill="#333">td — New</text>
    <text x="655" y="1012" font-size="11" fill="#333">td — Week 6</text>

    <!-- Contact form section -->
    <rect x="70" y="1070" width="860" height="260" fill="#fff" stroke="#888" stroke-dasharray="5,4"/>
    <text x="80" y="1088" font-size="10" fill="#888" font-weight="bold">CONTACT (h2, p, form w/ labels, inputs, button)</text>
    <text x="90" y="1118" font-size="18" font-weight="bold" fill="#333">h2 — Get in Touch</text>
    <text x="90" y="1140" font-size="11" fill="#555">p — Have a question? Drop a note.</text>

    <!-- Form fields -->
    <text x="90" y="1170" font-size="11" fill="#333" font-weight="bold">label — Name</text>
    <rect x="90" y="1175" width="380" height="28" fill="#fff" stroke="#666"/>
    <text x="100" y="1193" font-size="11" fill="#bbb">input type="text"</text>

    <text x="490" y="1170" font-size="11" fill="#333" font-weight="bold">label — Email</text>
    <rect x="490" y="1175" width="380" height="28" fill="#fff" stroke="#666"/>
    <text x="500" y="1193" font-size="11" fill="#bbb">input type="email"</text>

    <text x="90" y="1225" font-size="11" fill="#333" font-weight="bold">label — Message</text>
    <rect x="90" y="1230" width="780" height="60" fill="#fff" stroke="#666"/>
    <text x="100" y="1248" font-size="11" fill="#bbb">textarea</text>

    <rect x="90" y="1300" width="140" height="32" fill="#18BC9C" stroke="#666"/>
    <text x="160" y="1321" text-anchor="middle" font-size="12" fill="#fff" font-weight="bold">button — Send</text>

    <!-- =================== FOOTER =================== -->
    <rect x="40" y="1360" width="920" height="100" fill="#2C3E50" stroke="#666" stroke-width="1.5"/>
    <text x="50" y="1378" font-size="11" fill="#aac" font-weight="bold">FOOTER</text>
    <text x="500" y="1405" text-anchor="middle" font-size="13" fill="#fff">p — © 2026 Jeff Jensen · WDD 130 · BYU-Idaho</text>
    <text x="500" y="1435" text-anchor="middle" font-size="12" fill="#bcd">a — About    |    a — Site Plan    |    a — Email</text>
</svg>
